<svg width="20" height="20" viewBox="0 0 26 26" fill="none" xmlns="http://www.w3.org/2000/svg">
<g clip-path="url(#clip0_34_104)">
<path d="M21.1249 13.6197L12.9999 21.6667L4.87492 13.6197C4.339 13.0982 3.91687 12.4713 3.6351 11.7787C3.35333 11.086 3.21803 10.3425 3.23772 9.595C3.25741 8.84749 3.43166 8.11214 3.74951 7.43527C4.06735 6.75841 4.5219 6.15469 5.08453 5.66212C5.64716 5.16956 6.30568 4.79882 7.01863 4.57326C7.73158 4.34771 8.48351 4.27221 9.22707 4.35153C9.97063 4.43085 10.6897 4.66326 11.339 5.03414C11.9884 5.40502 12.5539 5.90633 12.9999 6.50649C13.4479 5.91068 14.0141 5.41376 14.6629 5.04681C15.3118 4.67987 16.0295 4.45081 16.7709 4.37397C17.5124 4.29713 18.2618 4.37417 18.9721 4.60025C19.6824 4.82634 20.3384 5.19661 20.8991 5.68789C21.4598 6.17917 21.913 6.78088 22.2304 7.45538C22.5478 8.12987 22.7226 8.86262 22.7438 9.60776C22.765 10.3529 22.6321 11.0944 22.3536 11.7858C22.075 12.4773 21.6567 13.1038 21.1249 13.6262" stroke="#444444" stroke-width="2" stroke-linecap="round" stroke-linejoin="round"/>
</g>
<defs>
<clipPath id="clip0_34_104">
<rect width="26" height="26" fill="white"/>
</clipPath>
</defs>
</svg>
