<svg width="26" height="26" viewBox="0 0 36 36" fill="none" xmlns="http://www.w3.org/2000/svg">
<g clip-path="url(#clip0_52_210)">
<path d="M29.25 18.858L18 30L6.74996 18.858C6.00792 18.1359 5.42343 17.268 5.03329 16.3089C4.64314 15.3499 4.45581 14.3204 4.48307 13.2854C4.51033 12.2504 4.75161 11.2322 5.1917 10.295C5.63179 9.3578 6.26117 8.52187 7.04019 7.83986C7.81922 7.15785 8.73102 6.64452 9.71818 6.33221C10.7053 6.0199 11.7465 5.91537 12.776 6.02519C13.8056 6.13502 14.8012 6.45683 15.7003 6.97035C16.5993 7.48387 17.3823 8.17799 18 9.00899C18.6203 8.18402 19.4042 7.49597 20.3026 6.9879C21.2011 6.47982 22.1947 6.16266 23.2214 6.05627C24.248 5.94988 25.2856 6.05654 26.2691 6.36958C27.2527 6.68262 28.161 7.1953 28.9373 7.87554C29.7136 8.55577 30.3411 9.38892 30.7806 10.3228C31.2201 11.2567 31.4621 12.2713 31.4914 13.3031C31.5208 14.3348 31.3369 15.3615 30.9512 16.3189C30.5655 17.2763 29.9863 18.1437 29.25 18.867" stroke="#D854CA" stroke-width="2" stroke-linecap="round" stroke-linejoin="round"/>
</g>
<defs>
<clipPath id="clip0_52_210">
<rect width="36" height="36" fill="white"/>
</clipPath>
</defs>
</svg>
