<svg width="100" height="100" viewBox="0 0 34 34" fill="none" xmlns="http://www.w3.org/2000/svg">
<g clip-path="url(#clip0_75_20)">
<path d="M31.1666 10.6746V24.0833C31.1667 25.1674 30.7525 26.2105 30.0088 26.9992C29.2651 27.7879 28.2482 28.2626 27.166 28.3262L26.9166 28.3333H7.08331C5.99926 28.3334 4.95617 27.9192 4.16744 27.1755C3.37872 26.4318 2.90399 25.4148 2.8404 24.3326L2.83331 24.0833V10.6746L16.2137 19.5953L16.3781 19.6888C16.5717 19.7834 16.7844 19.8326 17 19.8326C17.2155 19.8326 17.4282 19.7834 17.6219 19.6888L17.7862 19.5953L31.1666 10.6746Z" fill="white"/>
<path d="M26.9167 5.66675C28.4467 5.66675 29.7882 6.47425 30.5362 7.68833L17 16.7125L3.46375 7.68833C3.81895 7.11142 4.30696 6.62782 4.88708 6.27787C5.4672 5.92793 6.12259 5.72179 6.79858 5.67666L7.08333 5.66675H26.9167Z" fill="white"/>
</g>
<defs>
<clipPath id="clip0_75_20">
<rect width="34" height="34" fill="white"/>
</clipPath>
</defs>
</svg>
