<svg width="20" height="20" viewBox="0 0 28 28" fill="none" xmlns="http://www.w3.org/2000/svg">
<g clip-path="url(#clip0_52_167)">
<path d="M9.61729 8.56333L2.17396 9.6425L2.04213 9.66933C1.84256 9.72231 1.66062 9.82731 1.5149 9.9736C1.36918 10.1199 1.2649 10.3022 1.2127 10.502C1.1605 10.7018 1.16226 10.9118 1.21779 11.1107C1.27333 11.3096 1.38065 11.4902 1.52879 11.634L6.92113 16.8828L5.64946 24.297L5.63429 24.4253C5.62208 24.6317 5.66494 24.8377 5.75848 25.0221C5.85203 25.2065 5.99291 25.3627 6.16668 25.4748C6.34046 25.5868 6.5409 25.6507 6.74747 25.6598C6.95404 25.6689 7.15932 25.623 7.34229 25.5267L13.9993 22.0267L20.6411 25.5267L20.7578 25.5803C20.9504 25.6562 21.1596 25.6794 21.3642 25.6477C21.5687 25.616 21.7611 25.5304 21.9216 25.3998C22.0822 25.2692 22.2051 25.0982 22.2778 24.9044C22.3504 24.7106 22.3702 24.501 22.3351 24.297L21.0623 16.8828L26.457 11.6328L26.548 11.5337C26.6779 11.3736 26.7632 11.1819 26.795 10.9781C26.8267 10.7743 26.804 10.5658 26.7289 10.3737C26.6538 10.1816 26.5292 10.0128 26.3677 9.8846C26.2062 9.75636 26.0136 9.67323 25.8095 9.64367L18.3661 8.56333L15.0388 1.82C14.9425 1.62462 14.7935 1.4601 14.6085 1.34506C14.4236 1.23001 14.2101 1.16904 13.9923 1.16904C13.7745 1.16904 13.561 1.23001 13.3761 1.34506C13.1911 1.4601 13.0421 1.62462 12.9458 1.82L9.61729 8.56333Z" fill="#138600" fill-opacity="0.56"/>
</g>
<defs>
<clipPath id="clip0_52_167">
<rect width="28" height="28" fill="white"/>
</clipPath>
</defs>
</svg>
