<svg width="100" height="100" viewBox="0 0 34 34" fill="none" xmlns="http://www.w3.org/2000/svg">
<g clip-path="url(#clip0_75_31)">
<path d="M19.9155 4.83092C17.3556 5.9175 15.6726 8.306 15.5862 11.0359L15.5834 11.2938L15.2391 11.2612C11.8504 10.8801 8.86695 9.11917 6.81845 6.25892C6.67974 6.06507 6.49435 5.90936 6.27947 5.8062C6.06458 5.70304 5.82714 5.65577 5.58913 5.66876C5.35112 5.68176 5.12023 5.7546 4.91785 5.88054C4.71548 6.00648 4.54815 6.18146 4.43137 6.38925L4.29395 6.65275L4.22453 6.793C3.20595 8.89675 2.5387 11.4538 2.78378 14.1639L2.82628 14.5507C3.2272 17.7566 4.95128 20.5219 8.17987 22.5959L8.42495 22.7475L8.3102 22.8084C6.44728 23.7477 4.74303 24.1571 2.88862 24.0834C1.39262 24.0268 0.840115 26.0271 2.15478 26.7439C7.25195 29.522 12.7245 30.3791 17.4434 29.0106C23.1951 27.3389 27.5754 23.028 29.2514 17.0638L29.4313 16.3626C29.7684 14.9558 29.9583 13.5208 29.9994 12.0786L30.0036 11.6083L30.5604 10.5047L31.1837 9.2835L31.4869 8.66867L31.654 8.31875C32.0294 7.51834 32.3 6.85534 32.4672 6.29292L32.487 6.21359L32.4984 6.18809C32.81 5.348 32.2632 4.26425 31.1653 4.26425L30.9924 4.27417C30.8805 4.28793 30.7707 4.31504 30.6652 4.35492L30.5434 4.40875C30.1391 4.60509 29.7227 4.77543 29.2967 4.91875L28.7924 5.08167L28.4084 5.195L27.3148 5.49817C25.4221 3.91434 22.8608 3.72167 20.2144 4.71334L19.9155 4.83092Z" fill="white"/>
</g>
<defs>
<clipPath id="clip0_75_31">
<rect width="34" height="34" fill="white"/>
</clipPath>
</defs>
</svg>
